Coordinates
version=1
nRows=4
nColumns=63
inDegrees=yes

Units are S.I. units (second, meters, Newtons, ...)
If the header above contains a line with 'inDegrees', this indicates whether rotational values are in degrees (yes) or radians (no).

endheader
time	pelvis_tilt	pelvis_list	pelvis_rotation	pelvis_tx	pelvis_ty	pelvis_tz	hip_flexion_r	hip_adduction_r	hip_rotation_r	knee_angle_r	knee_angle_r_beta	ankle_angle_r	subtalar_angle_r	mtp_angle_r	hip_flexion_l	hip_adduction_l	hip_rotation_l	knee_angle_l	knee_angle_l_beta	ankle_angle_l	subtalar_angle_l	mtp_angle_l	L5_S1_Flex_Ext	L5_S1_Lat_Bending	L5_S1_axial_rotation	L4_L5_Flex_Ext	L4_L5_Lat_Bending	L4_L5_axial_rotation	L3_L4_Flex_Ext	L3_L4_Lat_Bending	L3_L4_axial_rotation	L2_L3_Flex_Ext	L2_L3_Lat_Bending	L2_L3_axial_rotation	L1_L2_Flex_Ext	L1_L2_Lat_Bending	L1_L2_axial_rotation	L1_T12_Flex_Ext	L1_T12_Lat_Bending	L1_T12_axial_rotation	Abs_r3	Abs_r2	Abs_r1	Abs_t1	Abs_t2	neck_flexion	neck_bending	neck_rotation	arm_flex_r	arm_add_r	arm_rot_r	elbow_flex_r	pro_sup_r	wrist_flex_r	wrist_dev_r	arm_flex_l	arm_add_l	arm_rot_l	elbow_flex_l	pro_sup_l	wrist_flex_l	wrist_dev_l
     14.63333333	      6.18588282	      0.56726665	    173.18791198	     -0.53373767	      0.86521666	      0.67766129	     -3.98497202	     -2.48925646	     -3.04005749	     33.47390801	      0.58422991	     20.56027063	     -4.20542896	      0.00000000	     32.89973394	     -4.17263519	    -16.21370887	     16.96748965	      0.29613856	      6.92859305	     -7.29842545	      0.00000000	      0.00138245	     -0.07323968	      1.40349019	      0.00256734	     -0.09740877	      1.49120833	      0.00227122	     -0.17807496	      1.49120833	      0.00158000	     -0.17807496	      1.22805392	      0.00128374	     -0.14935035	      1.14033578	      0.00078993	     -0.11344826	      1.05261764	      0.00987468	     -0.82850190	      7.80579140	      0.00000000	      0.00000000	      0.00000000	      0.00000000	      0.00000000	      7.85008743	    -14.83603402	     11.93655945	     44.25116612	     40.80742838	      0.00000000	      5.00000014	    -20.71508995	    -14.06615612	     16.60157312	     28.45261336	     51.18302215	      0.00000000	      5.00000014
     14.66666667	      5.81566088	     -0.00343594	    174.19746402	     -0.57832754	      0.86715109	      0.68534599	     -1.83729214	     -4.33211511	     -4.23772247	     41.70243223	      0.72784475	     13.87611419	     -7.61180169	      0.00000000	     31.45900087	     -2.28157434	    -13.87976901	     19.05958088	      0.33265244	      5.69532525	    -12.06534513	      0.00000000	      0.00028077	     -0.16688146	      1.27442009	      0.00052142	     -0.22195234	      1.35407134	      0.00046128	     -0.40575558	      1.35407134	      0.00032089	     -0.40575558	      1.11511757	      0.00026072	     -0.34030467	      1.03546632	      0.00016043	     -0.25849938	      0.95581506	      0.00200551	     -1.88779645	      7.08794219	      0.00000000	      0.00000000	      0.00000000	      0.00000000	      0.00000000	      5.60579958	    -14.14980234	     10.98515661	     43.59705608	     40.21343135	      0.00000000	      5.00000014	    -20.81060011	    -13.12392312	     12.59676802	     28.22217682	     49.83255578	      0.00000000	      5.00000014
     14.70000000	      5.24930375	     -0.67203634	    175.28206503	     -0.62255693	      0.87028462	      0.69263212	      1.21016507	     -6.50807427	     -5.51618143	     50.44720813	      0.88046988	      6.14712391	    -11.06215073	      0.00000000	     29.18890607	     -0.25478533	    -12.05354396	     20.57655463	      0.35912863	      5.42303406	    -15.12844231	      0.00000000	     -0.00147211	     -0.27995812	      1.13577559	     -0.00273386	     -0.37234430	      1.20676157	     -0.00241853	     -0.68069017	      1.20676157	     -0.00168248	     -0.68069017	      0.99380364	     -0.00136700	     -0.57089060	      0.92281767	     -0.00084116	     -0.43365513	      0.85183170	     -0.01051514	     -3.16694224	      6.31684312	      0.00000000	      0.00000000	      0.00000000	      0.00000000	      0.00000000	      3.03462305	    -13.23883401	     10.10335252	     42.34190851	     39.58220485	      0.00000000	      5.00000014	    -20.37110983	    -12.12084708	      7.81657418	     27.98533243	     48.27430943	      0.00000000	      5.00000014
     14.73333333	      4.59758217	     -1.41487198	    176.53602622	     -0.66569394	      0.87404244	      0.69920356	      4.70589835	     -8.79793293	     -6.53697997	     58.57468467	      1.02232111	     -0.47823685	    -14.06457727	      0.00000000	     26.14580950	      1.85826962	    -10.57865554	     21.15481928	      0.36922125	      6.20103097	    -16.55522525	      0.00000000	     -0.00219115	     -0.40329352	      0.94633767	     -0.00406918	     -0.53638038	      1.00548377	     -0.00359983	     -0.98056787	      1.00548377	     -0.00250426	     -0.98056787	      0.82804546	     -0.00203470	     -0.82239615	      0.76889936	     -0.00125202	     -0.62470167	      0.70975325	     -0.01565113	     -4.56213698	      5.26324621	      0.00000000	      0.00000000	      0.00000000	      0.00000000	      0.00000000	      0.36305217	    -12.22416379	      9.66298786	     40.68900787	     39.01458096	      0.00000000	      5.00000014	    -19.58093358	    -10.94859827	      1.69339860	     28.11377961	     46.42919736	      0.00000000	      5.00000014
